<?xml version="1.0" standalone="no"?>
<!DOCTYPE svg PUBLIC "-//W3C//DTD SVG 20010904//EN"
 "http://www.w3.org/TR/2001/REC-SVG-20010904/DTD/svg10.dtd">
<svg version="1.0" xmlns="http://www.w3.org/2000/svg"
 width="852.000000pt" height="480.000000pt" viewBox="0 0 852.000000 480.000000"
 preserveAspectRatio="xMidYMid meet">

<g transform="translate(0.000000,480.000000) scale(0.100000,-0.100000)"
fill="#000000" stroke="none">
<path d="M4835 4115 c-30 -30 -32 -64 -4 -99 l20 -26 169 0 c109 0 171 4 175
11 9 14 79 2 125 -21 43 -22 85 -66 99 -103 22 -56 28 -52 -174 -122 -44 -15
-86 -32 -92 -38 -21 -15 -16 -44 32 -192 24 -77 41 -143 37 -146 -4 -3 -234
-39 -512 -78 -278 -40 -719 -103 -980 -141 -261 -37 -478 -65 -482 -62 -7 8
-148 352 -148 362 0 4 55 17 121 30 132 24 159 39 159 88 0 61 -4 62 -357 62
-292 0 -321 -2 -335 -17 -8 -10 -18 -25 -21 -35 -6 -17 56 -158 76 -170 19
-12 63 -9 149 8 44 9 83 12 88 8 9 -9 160 -383 160 -396 0 -8 -231 -303 -373
-478 -56 -68 -104 -129 -106 -135 -2 -5 -68 -91 -146 -190 -77 -99 -150 -192
-161 -207 -10 -15 -24 -28 -30 -28 -6 0 -17 -12 -25 -27 -7 -16 -37 -59 -67
-98 l-53 -70 -64 3 c-59 4 -68 1 -109 -28 -56 -40 -77 -83 -78 -158 -1 -47 5
-66 30 -107 18 -29 43 -55 59 -61 15 -7 37 -15 48 -19 11 -5 37 -8 58 -7 22 1
123 -20 225 -47 203 -53 207 -54 487 -112 252 -53 347 -71 365 -71 8 1 87 -8
175 -18 88 -11 200 -23 248 -29 49 -5 90 -11 92 -13 2 -2 -1 -23 -7 -46 -10
-42 -11 -42 -57 -42 -51 0 -71 -13 -71 -45 0 -40 18 -45 147 -45 113 0 123 2
133 21 18 33 -11 69 -56 69 -33 0 -36 2 -30 23 3 12 6 27 6 33 0 8 27 13 73
16 252 13 408 278 297 503 l-20 40 33 31 c225 216 1217 1134 1224 1134 4 0 25
-53 45 -118 20 -64 46 -142 58 -172 20 -53 28 -82 50 -172 14 -58 87 -251 117
-313 58 -115 148 -240 265 -363 36 -38 48 -59 45 -74 -7 -26 27 -82 59 -96 32
-15 86 -15 119 0 52 23 71 104 39 166 -8 18 -22 32 -29 32 -21 0 -105 30 -123
43 -9 7 -55 51 -103 98 -64 63 -91 98 -104 135 -10 27 -26 58 -36 69 -9 11
-27 40 -39 63 -31 64 -139 382 -185 547 -8 28 -28 90 -44 139 -17 50 -31 104
-31 123 0 54 -126 435 -150 453 -13 10 -34 59 -60 140 -22 68 -38 125 -37 126
1 1 47 17 102 37 189 66 185 64 185 106 0 139 -117 269 -265 297 -22 4 -51 15
-64 25 -21 17 -43 19 -183 19 -155 0 -159 -1 -183 -25z m444 -985 c23 -71 44
-142 47 -157 5 -26 -17 -49 -327 -338 -183 -171 -471 -439 -640 -597 l-308
-287 -48 26 c-26 15 -49 27 -50 28 -1 0 3 20 9 43 10 40 12 42 50 42 51 0 78
15 78 43 0 42 -17 47 -147 47 -113 0 -123 -2 -133 -21 -18 -33 11 -69 55 -69
38 0 40 -5 25 -45 -9 -25 -13 -26 -72 -23 l-63 3 -229 572 c-127 315 -227 575
-223 579 3 4 348 56 764 116 417 59 844 121 948 137 105 15 198 29 207 30 13
1 26 -28 57 -129z m-2079 -232 c0 -2 99 -248 219 -548 121 -300 217 -548 213
-552 -20 -19 -1322 -38 -1322 -19 0 9 417 541 459 586 21 22 48 56 61 75 86
128 370 479 370 458z m388 -1175 c-37 -40 -76 -103 -84 -137 l-7 -28 -71 6
c-39 3 -118 11 -176 16 -58 6 -213 19 -345 30 -427 36 -610 52 -611 54 -1 0
-4 15 -7 31 l-6 30 500 -1 c274 -1 499 3 499 7 0 5 55 10 123 12 67 1 142 4
166 5 l45 2 -26 -27z m272 7 c0 -6 -10 -49 -21 -96 -16 -63 -29 -93 -50 -114
-34 -34 -36 -58 -8 -94 29 -36 83 -33 112 6 18 25 19 31 8 66 -11 33 -11 51 4
119 10 45 21 86 25 93 18 29 126 -65 158 -139 20 -47 20 -155 0 -202 -22 -50
-83 -116 -132 -142 -58 -31 -184 -31 -242 0 -49 26 -110 92 -132 142 -20 47
-20 155 0 202 24 55 87 119 143 145 51 24 135 32 135 14z m-1696 -72 c21 -30
20 -54 -4 -78 -41 -41 -110 -13 -110 44 0 53 84 78 114 34z m323 -128 c172
-17 454 -42 588 -51 199 -14 389 -34 403 -42 6 -5 12 -16 12 -26 0 -36 32
-108 71 -160 l41 -54 -59 7 c-175 20 -395 48 -443 58 -80 15 -181 36 -300 63
-58 13 -143 31 -190 40 -47 9 -105 24 -129 32 -24 8 -56 16 -71 18 -26 4 -141
31 -168 40 -10 4 -5 16 18 45 29 37 36 40 80 40 27 0 93 -4 147 -10z"/>
</g>
</svg>
