<?xml version="1.0" standalone="no"?>
<!DOCTYPE svg PUBLIC "-//W3C//DTD SVG 20010904//EN"
 "http://www.w3.org/TR/2001/REC-SVG-20010904/DTD/svg10.dtd">
<svg version="1.0" xmlns="http://www.w3.org/2000/svg"
 width="300.000000pt" height="300.000000pt" viewBox="0 0 300.000000 300.000000"
 preserveAspectRatio="xMidYMid meet">

<g transform="translate(0.000000,300.000000) scale(0.100000,-0.100000)"
fill="#000000" stroke="none">
<path d="M1350 2994 c-14 -2 -68 -11 -120 -20 -205 -35 -452 -142 -625 -271
-301 -225 -512 -566 -581 -938 -25 -135 -26 -414 -1 -532 63 -299 183 -540
371 -743 310 -335 730 -508 1176 -486 621 30 1158 437 1353 1026 56 168 72
279 72 480 -1 245 -40 418 -139 626 -212 443 -591 736 -1083 839 -75 16 -367
29 -423 19z m155 -621 c25 -253 27 -300 16 -348 -7 -30 -15 -55 -19 -55 -4 1
-62 167 -128 370 l-122 369 32 7 c17 4 65 9 106 13 l75 6 6 -35 c4 -19 19
-166 34 -327z m190 348 c22 -4 40 -12 40 -18 0 -6 -40 -137 -90 -291 -71 -222
-91 -275 -97 -254 -3 15 -16 133 -28 262 -11 129 -23 253 -26 275 l-6 40 84
-3 c46 -2 101 -7 123 -11z m170 -40 c39 -12 75 -24 82 -29 8 -5 -36 -93 -143
-287 -86 -154 -172 -310 -192 -347 -20 -38 -40 -68 -44 -68 -8 0 -13 72 -9
115 1 17 37 130 173 553 24 74 33 92 46 88 9 -3 49 -14 87 -25z m-502 -369
l127 -387 -31 -95 c-18 -52 -33 -97 -35 -98 -1 -2 -43 28 -93 68 -88 69 -91
73 -110 138 -11 37 -63 209 -115 382 -52 173 -94 315 -93 317 8 7 186 63 202
63 18 0 36 -45 148 -388z m736 273 c6 -6 -8 -38 -203 -484 l-150 -341 -64 -41
c-83 -51 -89 -46 -103 83 l-11 96 137 249 c157 284 230 414 257 460 l19 32 57
-25 c31 -13 58 -27 61 -29z m-997 -322 c59 -196 106 -358 105 -360 -2 -1 -17
9 -34 22 -27 22 -365 570 -365 592 0 9 161 103 177 103 6 0 59 -161 117 -357z
m1114 245 c93 -65 136 -106 127 -121 -4 -6 -98 -125 -209 -262 -188 -234 -206
-254 -278 -298 -42 -25 -76 -45 -76 -43 0 4 140 325 272 626 33 74 62 141 65
147 6 15 16 10 99 -49z m-1273 -262 c81 -137 147 -250 145 -251 -2 -2 -38 24
-80 58 -42 34 -146 116 -232 182 -85 66 -154 124 -152 130 5 18 147 136 159
132 6 -2 78 -115 160 -251z m1496 62 c34 -40 61 -74 61 -77 0 -4 -35 -27 -78
-54 -42 -26 -153 -95 -246 -152 -93 -58 -170 -104 -172 -102 -2 2 56 78 129
168 72 90 154 192 181 227 27 34 52 62 56 62 5 0 35 -32 69 -72z m-1566 -174
c104 -82 202 -159 220 -171 27 -20 96 -116 97 -135 0 -3 -129 68 -287 159
-159 90 -314 178 -345 195 -32 17 -58 34 -58 39 0 4 23 35 51 68 l51 62 42
-34 c22 -18 126 -101 229 -183z m1670 38 c31 -47 97 -178 97 -192 0 -5 -6 -10
-12 -10 -7 0 -183 -51 -390 -113 -208 -62 -378 -111 -378 -108 1 3 20 30 44
59 36 45 88 82 322 227 153 95 282 174 285 174 4 1 18 -16 32 -37z m-1685
-182 c349 -199 361 -207 390 -255 17 -28 33 -66 37 -86 l7 -35 -111 -12 -111
-11 -352 191 c-194 106 -355 193 -357 194 -13 10 113 228 129 222 4 -2 170
-95 368 -208z m688 -86 c-4 -13 -10 -24 -15 -24 -16 0 -20 43 -8 88 l12 45 8
-43 c5 -23 6 -53 3 -66z m-991 -54 c105 -56 195 -106 200 -110 6 -4 48 -28 95
-53 140 -75 170 -93 163 -100 -3 -4 -16 -7 -29 -7 -17 0 -572 188 -666 225
-15 6 -15 11 -1 57 22 77 32 100 40 95 5 -3 94 -51 198 -107z m2123 43 c12
-38 25 -82 28 -98 l6 -31 -179 -57 c-98 -32 -278 -90 -399 -130 l-221 -73 -96
25 c-53 14 -98 29 -101 32 -4 3 21 39 54 80 l60 73 362 109 c361 109 448 134
459 136 3 1 15 -29 27 -66z m-1448 -57 c18 -53 9 -48 -30 17 -22 38 -22 39 -2
26 12 -8 26 -27 32 -43z m277 12 c-3 -18 -17 -53 -32 -78 -15 -25 -25 -38 -22
-29 3 8 13 43 22 77 18 65 42 86 32 30z m52 -31 c0 -27 -2 -29 -9 -12 -12 28
-12 57 0 50 6 -3 10 -21 9 -38z m-227 -43 c38 -31 67 -58 65 -61 -3 -3 -33 10
-66 29 -41 22 -64 42 -70 61 -6 15 -7 27 -4 27 3 0 37 -25 75 -56z m211 -6
l15 -46 -36 5 c-21 3 -39 7 -41 9 -1 1 7 21 20 43 12 23 23 40 24 38 1 -1 9
-23 18 -49z m310 7 c-21 -26 -51 -49 -68 -54 -35 -9 -37 -9 -30 10 5 14 112
87 128 88 4 1 -9 -19 -30 -44z m-1253 -89 c325 -114 310 -108 290 -112 -14 -3
-611 -64 -626 -64 -9 0 2 132 18 217 9 51 15 63 27 60 9 -3 140 -48 291 -101z
m749 -12 c-26 -28 -31 -26 -53 20 -25 52 -20 57 30 29 l45 -25 -22 -24z m1385
-176 c1 -126 -3 -211 -9 -216 -8 -8 -263 61 -740 200 -40 11 -38 12 345 138
374 123 385 126 394 106 6 -12 10 -114 10 -228z m-1018 207 c-11 -8 -25 -15
-30 -15 -6 0 -2 7 8 15 11 8 25 15 30 15 6 0 2 -7 -8 -15z m27 -68 c-27 -35
-49 -60 -51 -56 -5 12 46 107 60 112 36 15 34 1 -9 -56z m-43 21 c-1 -7 -7
-24 -14 -37 l-13 -24 -16 31 c-14 28 -13 31 2 35 30 9 41 7 41 -5z m-182 -74
c24 -17 30 -62 10 -82 -17 -17 -64 -15 -82 4 -22 21 -20 50 4 74 24 24 38 25
68 4z m-218 -8 c0 -9 -22 -21 -57 -31 -53 -15 -59 -15 -95 1 -21 9 -38 21 -38
25 0 8 49 14 143 17 35 2 47 -2 47 -12z m-189 -31 c24 -14 39 -25 33 -25 -14
0 -134 41 -134 46 0 13 65 0 101 -21z m-78 -11 c43 -14 77 -27 75 -29 -3 -3
-796 -255 -812 -258 -5 -1 -13 14 -17 33 -13 59 -22 210 -13 210 9 0 431 44
574 59 41 5 84 9 95 10 11 0 55 -11 98 -25z m251 -19 c-18 -28 -34 -31 -52
-13 -10 10 -6 15 20 25 48 17 50 16 32 -12z m519 -3 c31 -9 57 -19 57 -23 0
-4 -14 -9 -30 -13 -22 -4 -46 2 -85 21 -30 15 -55 31 -55 36 0 10 21 6 113
-21z m-43 -54 c0 -4 -3 -8 -7 -8 -5 0 -18 -3 -29 -6 -17 -5 -24 1 -33 27 -6
17 -11 34 -11 36 0 2 18 -6 40 -18 22 -13 40 -26 40 -31z m-450 10 c0 -4 -6
-5 -14 -2 -8 3 -12 12 -9 21 5 12 7 12 14 1 5 -7 9 -16 9 -20z m-114 11 c24
-6 44 -14 44 -17 0 -14 -173 -231 -188 -235 -69 -21 -214 -67 -430 -136 -140
-45 -257 -81 -261 -81 -8 0 -76 209 -70 213 2 2 72 24 154 50 83 26 269 85
415 131 146 46 271 85 278 85 7 1 33 -4 58 -10z m1120 -113 l399 -114 -3 -28
c-2 -26 -60 -214 -68 -223 -4 -4 -75 35 -684 377 l-134 76 29 12 c17 7 37 13
46 14 9 0 195 -51 415 -114z m-636 85 c8 -16 5 -21 -20 -30 l-31 -10 18 29
c21 35 20 35 33 11z m-386 -7 c24 -9 19 -38 -15 -99 -28 -50 -34 -55 -95 -75
-36 -12 -67 -20 -69 -18 -6 5 145 198 155 198 5 0 15 -3 24 -6z m673 -93 c371
-208 590 -330 626 -347 20 -10 37 -22 37 -27 0 -8 -65 -132 -76 -146 -2 -2
-81 39 -176 90 -285 154 -328 176 -450 241 l-116 62 -44 90 c-23 49 -45 93
-46 98 -4 10 35 27 65 27 13 1 94 -39 180 -88z m-585 27 l41 -32 -38 -13 c-21
-7 -39 -12 -40 -11 -5 7 -13 88 -8 88 3 0 23 -14 45 -32z m358 -48 c22 -44 40
-81 40 -84 0 -2 -29 12 -64 30 -44 24 -66 42 -70 58 -3 13 -9 31 -12 40 -6 15
22 34 53 35 7 1 31 -35 53 -79z m-148 28 c-7 -7 -12 -8 -12 -2 0 6 3 14 7 17
3 4 9 5 12 2 2 -3 -1 -11 -7 -17z m-272 -17 c0 -25 -24 -50 -37 -38 -3 4 29
67 35 67 1 0 2 -13 2 -29z m304 4 c3 -8 1 -15 -4 -15 -6 0 -10 7 -10 15 0 8 2
15 4 15 2 0 6 -7 10 -15z m-84 -7 c0 -7 -5 -20 -10 -28 -9 -13 -11 -13 -20 0
-16 24 -12 40 10 40 11 0 20 -6 20 -12z m39 -25 c-1 -35 -13 -53 -28 -43 -12
7 -13 13 -3 34 13 30 32 35 31 9z m-193 -8 c-20 -15 -36 -19 -36 -10 0 5 38
23 50 24 3 0 -4 -6 -14 -14z m110 -33 c4 -12 2 -28 -4 -35 -6 -7 -31 -50 -56
-97 -49 -93 -45 -94 -66 24 -17 98 -15 103 37 130 53 26 79 20 89 -22z m131
30 c7 -4 24 -38 38 -75 l25 -68 -54 41 c-52 39 -54 42 -45 73 5 18 9 33 9 34
0 6 15 3 27 -5z m-297 -20 c0 -4 -20 -18 -45 -30 -45 -22 -46 -22 -35 -1 15
27 80 53 80 31z m523 -182 c32 -61 57 -113 55 -115 -2 -2 -45 31 -97 74 -87
71 -95 81 -117 141 -13 36 -24 69 -24 73 0 5 28 -7 63 -26 61 -34 63 -38 120
-147z m-623 153 c-1 -22 -45 -55 -132 -101 -54 -28 -98 -48 -98 -45 0 3 18 28
41 57 33 42 52 55 102 73 68 23 87 27 87 16z m319 -7 c7 -8 9 -25 5 -41 -7
-30 -16 -21 -28 28 -7 29 4 36 23 13z m-194 -109 l18 -113 -82 -153 c-191
-360 -277 -511 -289 -511 -14 0 -113 50 -154 77 l-27 19 33 59 c18 33 70 130
116 215 45 85 99 184 118 220 20 36 57 105 83 154 41 77 53 92 95 116 27 15
54 28 60 29 7 1 19 -43 29 -112z m170 22 c5 -26 -6 -82 -39 -204 -25 -92 -47
-170 -49 -172 -2 -2 -13 50 -24 116 l-19 119 54 102 c57 106 65 110 77 39z
m119 9 c28 -23 52 -43 54 -44 8 -5 279 -770 275 -776 -2 -4 -49 -22 -104 -39
-73 -23 -103 -29 -108 -21 -4 7 -40 148 -80 314 -41 167 -86 354 -101 416 -23
93 -26 119 -18 152 6 22 15 40 20 40 6 0 33 -19 62 -42z m-604 28 c0 -2 -20
-30 -46 -62 -43 -57 -55 -64 -287 -186 l-242 -127 -19 22 c-17 20 -76 130 -76
141 0 3 93 35 208 71 114 37 259 84 322 105 110 37 140 45 140 36z m1136 -189
c186 -100 345 -186 352 -190 13 -9 -31 -72 -115 -167 l-40 -44 -172 139 c-95
77 -188 151 -207 165 -26 18 -52 59 -100 153 -35 70 -63 127 -61 127 2 0 156
-82 343 -183z m-996 158 c0 -2 -41 -80 -91 -172 -50 -92 -131 -242 -180 -333
-49 -91 -93 -171 -98 -179 -8 -12 -16 -10 -48 14 -54 40 -117 96 -126 113 -6
9 26 60 110 169 218 289 209 279 319 338 96 52 114 60 114 50z m661 -156 l100
-81 114 -229 c63 -126 115 -235 115 -242 0 -14 -165 -106 -173 -97 -2 3 -57
154 -122 335 -65 182 -123 345 -131 363 -7 17 -11 32 -8 32 3 0 50 -36 105
-81z m-192 -359 c43 -179 81 -336 83 -349 4 -29 -15 -35 -139 -46 -70 -7 -72
-7 -77 16 -3 13 -21 119 -40 236 l-34 212 24 88 c13 48 34 124 45 168 12 44
23 87 26 95 6 17 2 30 112 -420z m-745 368 c-21 -35 -288 -378 -295 -378 -11
0 -103 106 -120 137 -9 16 -10 28 -4 30 6 3 100 53 210 113 110 59 204 108
208 109 5 1 5 -5 1 -11z m500 -188 l18 -125 -51 -185 c-28 -102 -55 -198 -59
-215 -8 -28 -12 -30 -48 -28 -46 3 -234 60 -234 71 0 5 4 12 9 18 5 5 42 72
83 149 219 410 251 467 258 454 4 -8 15 -70 24 -139z m766 -85 c99 -80 180
-149 180 -154 0 -9 -123 -109 -145 -117 -10 -4 -42 50 -120 205 -58 116 -103
211 -101 211 3 0 86 -65 186 -145z m-706 -280 c15 -99 30 -188 33 -199 5 -18
1 -18 -78 -11 -46 4 -87 8 -90 11 -3 2 16 83 42 181 27 98 49 187 49 198 0 11
3 15 8 10 5 -6 21 -91 36 -190z"/>
</g>
</svg>
